<mxfile host="app.diagrams.net" modified="2023-06-13T17:04:29.587Z" agent="Mozilla/5.0 (Windows NT 10.0; Win64; x64) AppleWebKit/537.36 (KHTML, like Gecko) Chrome/114.0.0.0 Safari/537.36" etag="Pfl9q_0qFkLaOUfEBgSZ" version="21.3.4" type="device">
  <diagram name="Σελίδα-1" id="mGzePm2OfvI8OcJ73MwB">
    <mxGraphModel dx="792" dy="1106" grid="1" gridSize="10" guides="1" tooltips="1" connect="1" arrows="1" fold="1" page="1" pageScale="1" pageWidth="1169" pageHeight="827" math="0" shadow="0">
      <root>
        <mxCell id="0" />
        <mxCell id="1" parent="0" />
        <mxCell id="aJ_ASRXkSESKS3gU_9aE-6" style="edgeStyle=orthogonalEdgeStyle;rounded=0;orthogonalLoop=1;jettySize=auto;html=1;entryX=0.623;entryY=0;entryDx=0;entryDy=0;entryPerimeter=0;" edge="1" parent="1" source="aJ_ASRXkSESKS3gU_9aE-1" target="aJ_ASRXkSESKS3gU_9aE-4">
          <mxGeometry relative="1" as="geometry" />
        </mxCell>
        <mxCell id="aJ_ASRXkSESKS3gU_9aE-7" style="edgeStyle=orthogonalEdgeStyle;rounded=0;orthogonalLoop=1;jettySize=auto;html=1;entryX=0.585;entryY=0.025;entryDx=0;entryDy=0;entryPerimeter=0;" edge="1" parent="1" source="aJ_ASRXkSESKS3gU_9aE-1" target="aJ_ASRXkSESKS3gU_9aE-5">
          <mxGeometry relative="1" as="geometry" />
        </mxCell>
        <mxCell id="aJ_ASRXkSESKS3gU_9aE-1" value="load the data" style="rounded=0;whiteSpace=wrap;html=1;" vertex="1" parent="1">
          <mxGeometry x="320" y="40" width="120" height="40" as="geometry" />
        </mxCell>
        <mxCell id="aJ_ASRXkSESKS3gU_9aE-12" style="edgeStyle=orthogonalEdgeStyle;rounded=0;orthogonalLoop=1;jettySize=auto;html=1;" edge="1" parent="1" source="aJ_ASRXkSESKS3gU_9aE-3" target="aJ_ASRXkSESKS3gU_9aE-10">
          <mxGeometry relative="1" as="geometry" />
        </mxCell>
        <mxCell id="aJ_ASRXkSESKS3gU_9aE-3" value="calculate z-projections of both channels" style="rounded=0;whiteSpace=wrap;html=1;" vertex="1" parent="1">
          <mxGeometry x="280" y="250" width="200" height="80" as="geometry" />
        </mxCell>
        <mxCell id="aJ_ASRXkSESKS3gU_9aE-8" style="edgeStyle=orthogonalEdgeStyle;rounded=0;orthogonalLoop=1;jettySize=auto;html=1;entryX=0.5;entryY=0;entryDx=0;entryDy=0;" edge="1" parent="1" source="aJ_ASRXkSESKS3gU_9aE-4" target="aJ_ASRXkSESKS3gU_9aE-3">
          <mxGeometry relative="1" as="geometry" />
        </mxCell>
        <mxCell id="aJ_ASRXkSESKS3gU_9aE-4" value="donor channel" style="shape=parallelogram;html=1;strokeWidth=2;perimeter=parallelogramPerimeter;whiteSpace=wrap;rounded=1;arcSize=12;size=0.23;" vertex="1" parent="1">
          <mxGeometry x="210" y="130" width="130" height="80" as="geometry" />
        </mxCell>
        <mxCell id="aJ_ASRXkSESKS3gU_9aE-9" style="edgeStyle=orthogonalEdgeStyle;rounded=0;orthogonalLoop=1;jettySize=auto;html=1;entryX=0.5;entryY=0;entryDx=0;entryDy=0;" edge="1" parent="1" source="aJ_ASRXkSESKS3gU_9aE-5" target="aJ_ASRXkSESKS3gU_9aE-3">
          <mxGeometry relative="1" as="geometry" />
        </mxCell>
        <mxCell id="aJ_ASRXkSESKS3gU_9aE-5" value="acceptor channel" style="shape=parallelogram;html=1;strokeWidth=2;perimeter=parallelogramPerimeter;whiteSpace=wrap;rounded=1;arcSize=12;size=0.23;" vertex="1" parent="1">
          <mxGeometry x="410" y="130" width="130" height="80" as="geometry" />
        </mxCell>
        <mxCell id="aJ_ASRXkSESKS3gU_9aE-11" style="edgeStyle=orthogonalEdgeStyle;rounded=0;orthogonalLoop=1;jettySize=auto;html=1;" edge="1" parent="1" source="aJ_ASRXkSESKS3gU_9aE-10">
          <mxGeometry relative="1" as="geometry">
            <mxPoint x="380" y="520" as="targetPoint" />
          </mxGeometry>
        </mxCell>
        <mxCell id="aJ_ASRXkSESKS3gU_9aE-10" value="remove the background using napari" style="rounded=0;whiteSpace=wrap;html=1;" vertex="1" parent="1">
          <mxGeometry x="280" y="374" width="200" height="80" as="geometry" />
        </mxCell>
        <mxCell id="aJ_ASRXkSESKS3gU_9aE-16" style="edgeStyle=orthogonalEdgeStyle;rounded=0;orthogonalLoop=1;jettySize=auto;html=1;" edge="1" parent="1" source="aJ_ASRXkSESKS3gU_9aE-13" target="aJ_ASRXkSESKS3gU_9aE-14">
          <mxGeometry relative="1" as="geometry" />
        </mxCell>
        <mxCell id="aJ_ASRXkSESKS3gU_9aE-13" value="remove noise data using gaussian smoothing" style="rounded=0;whiteSpace=wrap;html=1;" vertex="1" parent="1">
          <mxGeometry x="280" y="490" width="200" height="80" as="geometry" />
        </mxCell>
        <mxCell id="aJ_ASRXkSESKS3gU_9aE-17" style="edgeStyle=orthogonalEdgeStyle;rounded=0;orthogonalLoop=1;jettySize=auto;html=1;" edge="1" parent="1" source="aJ_ASRXkSESKS3gU_9aE-14" target="aJ_ASRXkSESKS3gU_9aE-15">
          <mxGeometry relative="1" as="geometry" />
        </mxCell>
        <mxCell id="aJ_ASRXkSESKS3gU_9aE-14" value="calculate FRET ratios" style="rounded=0;whiteSpace=wrap;html=1;" vertex="1" parent="1">
          <mxGeometry x="280" y="610" width="200" height="80" as="geometry" />
        </mxCell>
        <mxCell id="aJ_ASRXkSESKS3gU_9aE-15" value="export as gif" style="rounded=0;whiteSpace=wrap;html=1;" vertex="1" parent="1">
          <mxGeometry x="280" y="730" width="200" height="80" as="geometry" />
        </mxCell>
      </root>
    </mxGraphModel>
  </diagram>
</mxfile>
